<mxfile host="app.diagrams.net" agent="Mozilla/5.0 (Windows NT 10.0; Win64; x64) AppleWebKit/537.36 (KHTML, like Gecko) Chrome/132.0.0.0 Safari/537.36 Edg/132.0.0.0" version="26.0.14">
  <diagram name="Page-1" id="fzhugPVXeR2PshBQzTmp">
    <mxGraphModel dx="1042" dy="565" grid="1" gridSize="10" guides="1" tooltips="1" connect="1" arrows="1" fold="1" page="1" pageScale="1" pageWidth="850" pageHeight="1100" math="0" shadow="0">
      <root>
        <mxCell id="0" />
        <mxCell id="1" parent="0" />
        <mxCell id="yMZxG6o560DRZLnXG55p-4" style="edgeStyle=orthogonalEdgeStyle;rounded=0;orthogonalLoop=1;jettySize=auto;html=1;exitX=0.5;exitY=1;exitDx=0;exitDy=0;" edge="1" parent="1" source="yMZxG6o560DRZLnXG55p-1" target="yMZxG6o560DRZLnXG55p-2">
          <mxGeometry relative="1" as="geometry" />
        </mxCell>
        <mxCell id="yMZxG6o560DRZLnXG55p-1" value="GitHub" style="shape=datastore;whiteSpace=wrap;html=1;" vertex="1" parent="1">
          <mxGeometry x="160" y="40" width="60" height="60" as="geometry" />
        </mxCell>
        <mxCell id="yMZxG6o560DRZLnXG55p-2" value="Python ingestion &amp;amp; transformation" style="whiteSpace=wrap;html=1;shape=mxgraph.basic.document" vertex="1" parent="1">
          <mxGeometry x="140" y="280" width="100" height="100" as="geometry" />
        </mxCell>
        <mxCell id="yMZxG6o560DRZLnXG55p-6" style="edgeStyle=orthogonalEdgeStyle;rounded=0;orthogonalLoop=1;jettySize=auto;html=1;exitX=0.5;exitY=0;exitDx=0;exitDy=0;exitPerimeter=0;entryX=1;entryY=0.5;entryDx=0;entryDy=0;" edge="1" parent="1" source="yMZxG6o560DRZLnXG55p-3" target="yMZxG6o560DRZLnXG55p-1">
          <mxGeometry relative="1" as="geometry" />
        </mxCell>
        <mxCell id="yMZxG6o560DRZLnXG55p-3" value="CI/CD" style="strokeWidth=2;html=1;shape=mxgraph.flowchart.multi-document;whiteSpace=wrap;" vertex="1" parent="1">
          <mxGeometry x="220" y="160" width="88" height="60" as="geometry" />
        </mxCell>
        <mxCell id="yMZxG6o560DRZLnXG55p-5" style="edgeStyle=orthogonalEdgeStyle;rounded=0;orthogonalLoop=1;jettySize=auto;html=1;exitX=1;exitY=0.5;exitDx=0;exitDy=0;exitPerimeter=0;entryX=0.5;entryY=0.88;entryDx=0;entryDy=0;entryPerimeter=0;" edge="1" parent="1" source="yMZxG6o560DRZLnXG55p-2" target="yMZxG6o560DRZLnXG55p-3">
          <mxGeometry relative="1" as="geometry" />
        </mxCell>
        <mxCell id="yMZxG6o560DRZLnXG55p-7" value="Power BI" style="ellipse;shape=cloud;whiteSpace=wrap;html=1;align=center;" vertex="1" parent="1">
          <mxGeometry x="360" y="40" width="100" height="60" as="geometry" />
        </mxCell>
        <mxCell id="yMZxG6o560DRZLnXG55p-8" style="edgeStyle=orthogonalEdgeStyle;rounded=0;orthogonalLoop=1;jettySize=auto;html=1;exitX=0.5;exitY=0;exitDx=0;exitDy=0;entryX=0.16;entryY=0.55;entryDx=0;entryDy=0;entryPerimeter=0;" edge="1" parent="1" source="yMZxG6o560DRZLnXG55p-1" target="yMZxG6o560DRZLnXG55p-7">
          <mxGeometry relative="1" as="geometry" />
        </mxCell>
        <mxCell id="yMZxG6o560DRZLnXG55p-9" value="Column Type Formatting&lt;div&gt;NaN rows&lt;/div&gt;&lt;div&gt;Spelling mistakes&lt;/div&gt;" style="rounded=0;whiteSpace=wrap;html=1;" vertex="1" parent="1">
          <mxGeometry x="570" y="30" width="210" height="60" as="geometry" />
        </mxCell>
        <mxCell id="yMZxG6o560DRZLnXG55p-10" value="Duration of borrow&lt;div&gt;missing customers&lt;/div&gt;&lt;div&gt;#dropped rows&lt;/div&gt;" style="rounded=0;whiteSpace=wrap;html=1;" vertex="1" parent="1">
          <mxGeometry x="570" y="110" width="210" height="60" as="geometry" />
        </mxCell>
      </root>
    </mxGraphModel>
  </diagram>
</mxfile>
